<svg width="625" height="83" viewBox="0 0 625 83" fill="none" xmlns="http://www.w3.org/2000/svg">
<path d="M23.4062 60.8125C23.4896 57.9375 23.4479 55.0625 23.2812 52.1875C23.1562 49.2708 22.9896 46.375 22.7812 43.5C22.6146 40.5833 22.4479 37.6875 22.2812 34.8125C22.1562 31.8958 22.1562 29 22.2812 26.125C21.8229 26.25 21.1146 26.4375 20.1562 26.6875C19.1979 26.8958 18.1146 27.1458 16.9062 27.4375C15.6979 27.7292 14.4062 28.0417 13.0312 28.375C11.6979 28.6667 10.4271 28.9583 9.21875 29.25C8.01042 29.5417 6.92708 29.8125 5.96875 30.0625C5.01042 30.2708 4.30208 30.4167 3.84375 30.5C3.26042 30.625 2.67708 30.5625 2.09375 30.3125C1.55208 30.0208 1.05208 29.7083 0.59375 29.375L2.78125 27.25C9.36458 26.625 15.8438 25.3542 22.2188 23.4375C28.5938 21.4792 34.7604 19.125 40.7188 16.375H43.9688C44.1771 16.7083 44.1771 17.0625 43.9688 17.4375C43.8021 17.8125 43.5521 18.1667 43.2188 18.5C42.8854 18.7917 42.5521 19.0625 42.2188 19.3125L41.7812 19.625L26.6562 25.0625C26.6146 25.0625 26.5729 25.5625 26.5312 26.5625C26.5312 27.5625 26.5312 28.75 26.5312 30.125C26.5312 31.5 26.5312 32.9375 26.5312 34.4375C26.5729 35.8958 26.6146 37.1042 26.6562 38.0625C26.6562 38.3958 26.6771 39.125 26.7188 40.25C26.8021 41.375 26.8646 42.6875 26.9062 44.1875C26.9896 45.6458 27.0729 47.2083 27.1562 48.875C27.2396 50.5417 27.3229 52.125 27.4062 53.625C27.4896 55.125 27.5521 56.4375 27.5938 57.5625C27.6354 58.6458 27.6771 59.375 27.7188 59.75C27.7188 60.4583 27.5104 61.1042 27.0938 61.6875C26.7188 62.2708 26.2812 62.6667 25.7812 62.875C25.2812 63.0833 24.7812 63.0625 24.2812 62.8125C23.8229 62.5208 23.5312 61.8542 23.4062 60.8125ZM51.5938 60.8125C51.9688 56.3958 52.0521 52.1667 51.8438 48.125C51.6771 44.0833 51.3438 40.0625 50.8438 36.0625C50.3438 32.0625 49.7604 28 49.0938 23.875C48.4271 19.75 47.8229 15.4167 47.2812 10.875C47.2812 10.75 47.2604 10.5417 47.2188 10.25C47.2188 9.95833 47.2188 9.64583 47.2188 9.3125C47.2188 8.9375 47.2188 8.60417 47.2188 8.3125C47.2604 8.02083 47.2812 7.8125 47.2812 7.6875H49.4688C49.5938 8.4375 49.7812 9.60417 50.0312 11.1875C50.3229 12.7708 50.6354 14.5625 50.9688 16.5625C51.3438 18.5625 51.7188 20.6667 52.0938 22.875C52.5104 25.0833 52.8854 27.1875 53.2188 29.1875C53.5938 31.1875 53.9271 32.9792 54.2188 34.5625C54.5104 36.1458 54.7396 37.3125 54.9062 38.0625C54.9062 38.1875 54.9479 38.4167 55.0312 38.75C55.1562 39.0417 55.2604 39.3542 55.3438 39.6875C55.4688 40.0208 55.5729 40.3542 55.6562 40.6875C55.7812 40.9792 55.8854 41.1875 55.9688 41.3125C56.0938 40.9792 56.3438 40.4167 56.7188 39.625C57.1354 38.7917 57.5729 37.9167 58.0312 37C58.4896 36.0417 58.9271 35.1667 59.3438 34.375C59.7604 33.5417 60.0729 32.9583 60.2812 32.625C60.9479 31.4167 61.8021 30.3125 62.8438 29.3125C63.8854 28.3125 64.9062 27.6875 65.9062 27.4375C66.9062 27.1875 67.7812 27.4375 68.5312 28.1875C69.3229 28.8958 69.8229 30.375 70.0312 32.625C70.0729 33.1667 70.1146 34 70.1562 35.125C70.2396 36.25 70.3229 37.5417 70.4062 39C70.4896 40.4167 70.5729 41.9167 70.6562 43.5C70.7396 45.0833 70.8021 46.5833 70.8438 48C70.9271 49.4167 70.9896 50.6875 71.0312 51.8125C71.1146 52.9375 71.1562 53.7708 71.1562 54.3125C71.6146 54.8958 71.9479 55.5833 72.1562 56.375C72.4062 57.125 72.4271 57.875 72.2188 58.625C71.3854 58.9167 70.6771 58.8958 70.0938 58.5625C69.5104 58.2292 69.0104 57.7708 68.5938 57.1875C68.1771 56.5625 67.8229 55.875 67.5312 55.125C67.2396 54.375 66.9896 53.7292 66.7812 53.1875C66.8646 51.6042 66.9271 49.8958 66.9688 48.0625C67.0104 46.2292 66.9896 44.375 66.9062 42.5C66.8646 40.5833 66.7396 38.6875 66.5312 36.8125C66.3646 34.9375 66.0938 33.1667 65.7188 31.5C64.9688 31.125 64.2604 31.2708 63.5938 31.9375C62.9688 32.6042 62.3646 33.625 61.7812 35C61.2396 36.3333 60.7188 37.9167 60.2188 39.75C59.7188 41.5833 59.2396 43.5208 58.7812 45.5625C58.3229 47.5625 57.8646 49.5625 57.4062 51.5625C56.9896 53.5625 56.5729 55.375 56.1562 57C55.7812 58.625 55.3854 59.9792 54.9688 61.0625C54.5938 62.1458 54.1979 62.7917 53.7812 63L51.5938 60.8125ZM87.4062 61.9375C85.6562 60.5625 84.2604 58.9583 83.2188 57.125C82.2188 55.25 81.4479 53.25 80.9062 51.125C80.6562 51.3333 80.2812 51.5625 79.7812 51.8125C79.2812 52.0625 78.7604 52.2708 78.2188 52.4375C77.7188 52.6042 77.2188 52.7292 76.7188 52.8125C76.2188 52.8542 75.8438 52.7917 75.5938 52.625C75.3854 52.4583 75.3229 52.1875 75.4062 51.8125C75.5312 51.3958 75.9271 50.7917 76.5938 50C76.6771 49.875 76.9271 49.6042 77.3438 49.1875C77.8021 48.7708 78.2812 48.3333 78.7812 47.875C79.2812 47.375 79.7396 46.9167 80.1562 46.5C80.5729 46.0417 80.8229 45.75 80.9062 45.625C81.3646 44.5833 81.6354 43.4375 81.7188 42.1875C81.8438 40.9375 81.9062 39.6458 81.9062 38.3125C81.9479 36.9375 82.0312 35.5833 82.1562 34.25C82.2812 32.9167 82.5938 31.6667 83.0938 30.5C83.3854 29.8333 83.9271 29.0208 84.7188 28.0625C85.5521 27.0625 86.4688 26.1042 87.4688 25.1875C88.5104 24.2708 89.5521 23.4583 90.5938 22.75C91.6771 22 92.5938 21.5417 93.3438 21.375C94.1354 21.2083 94.6979 21.3958 95.0312 21.9375C95.4062 22.4792 95.4062 23.5208 95.0312 25.0625C94.5729 26.8958 93.8646 28.6875 92.9062 30.4375C91.9896 32.1458 91.0312 33.8542 90.0312 35.5625C89.0312 37.2292 88.0729 38.8958 87.1562 40.5625C86.2812 42.2292 85.6562 43.9167 85.2812 45.625C85.0729 46.5417 84.9688 47.6667 84.9688 49C84.9688 50.2917 85.1146 51.5833 85.4062 52.875C85.6979 54.1667 86.1771 55.3542 86.8438 56.4375C87.5104 57.4792 88.4271 58.2083 89.5938 58.625C90.9271 59.125 92.2604 59.25 93.5938 59C94.9271 58.75 96.2188 58.2708 97.4688 57.5625C98.7604 56.8542 99.9896 55.9792 101.156 54.9375C102.323 53.8542 103.406 52.75 104.406 51.625C105.406 50.5 106.302 49.4167 107.094 48.375C107.885 47.2917 108.552 46.375 109.094 45.625L110.156 46.75C110.448 47 110.26 47.7083 109.594 48.875C108.969 50.0417 108.031 51.375 106.781 52.875C105.573 54.3333 104.135 55.8333 102.469 57.375C100.802 58.9167 99.0729 60.2083 97.2812 61.25C95.5312 62.2917 93.7812 62.9375 92.0312 63.1875C90.3229 63.4375 88.7812 63.0208 87.4062 61.9375ZM85.2812 34.75C85.2396 34.9583 85.1979 35.3333 85.1562 35.875C85.1562 36.375 85.1562 36.9167 85.1562 37.5C85.1562 38.0833 85.1562 38.625 85.1562 39.125C85.1979 39.625 85.2396 39.9792 85.2812 40.1875C86.6146 37.8958 87.8646 35.4583 89.0312 32.875C90.1979 30.2917 91.1146 27.6875 91.7812 25.0625C90.8229 25.3958 89.9479 25.9167 89.1562 26.625C88.4062 27.2917 87.7604 28.0833 87.2188 29C86.6771 29.875 86.2396 30.8125 85.9062 31.8125C85.6146 32.8125 85.4062 33.7917 85.2812 34.75ZM148.969 61.9375C146.594 60.9792 144.781 59.7292 143.531 58.1875C142.281 56.6042 141.427 54.9792 140.969 53.3125C140.51 51.6042 140.365 49.9583 140.531 48.375C140.698 46.7917 141.01 45.5208 141.469 44.5625C141.927 43.5625 142.448 43.0208 143.031 42.9375C143.656 42.8125 144.177 43.3542 144.594 44.5625C144.135 47.1875 144.135 49.4792 144.594 51.4375C145.052 53.3542 145.802 54.9583 146.844 56.25C147.885 57.5 149.156 58.4375 150.656 59.0625C152.156 59.6458 153.698 59.9583 155.281 60C156.865 60 158.406 59.7083 159.906 59.125C161.406 58.5417 162.698 57.7083 163.781 56.625C164.865 55.5 165.656 54.1042 166.156 52.4375C166.656 50.7708 166.698 48.875 166.281 46.75C166.073 45.7917 165.51 44.625 164.594 43.25C163.719 41.8333 162.698 40.3333 161.531 38.75C160.406 37.1667 159.24 35.5625 158.031 33.9375C156.823 32.2708 155.802 30.6875 154.969 29.1875C154.177 27.6458 153.656 26.25 153.406 25C153.198 23.7083 153.51 22.6458 154.344 21.8125C155.01 21.2708 155.99 20.4583 157.281 19.375C158.615 18.25 160.052 17.1458 161.594 16.0625C163.135 14.9792 164.698 14.0417 166.281 13.25C167.906 12.4167 169.365 12 170.656 12C171.615 12 172.115 12.1458 172.156 12.4375C172.24 12.7292 172.031 13.125 171.531 13.625C171.031 14.0833 170.302 14.6458 169.344 15.3125C168.427 15.9792 167.427 16.7083 166.344 17.5C165.26 18.25 164.156 19.0625 163.031 19.9375C161.948 20.7708 161.01 21.625 160.219 22.5C159.469 23.3333 158.906 24.1667 158.531 25C158.198 25.7917 158.24 26.5417 158.656 27.25C160.156 29.375 161.656 31.5208 163.156 33.6875C164.698 35.8542 166.031 38 167.156 40.125C168.281 42.2083 169.115 44.2708 169.656 46.3125C170.24 48.3125 170.323 50.25 169.906 52.125C169.49 53.9583 168.469 55.7083 166.844 57.375C165.26 59.0417 162.906 60.5625 159.781 61.9375C157.906 62.7292 156.094 63.1042 154.344 63.0625C152.635 63.0208 150.844 62.6458 148.969 61.9375ZM193.906 61.9375C193.99 60.2708 194.031 58.5208 194.031 56.6875C194.073 54.8125 194.052 52.9375 193.969 51.0625C193.885 49.1875 193.74 47.3333 193.531 45.5C193.365 43.625 193.115 41.8542 192.781 40.1875C192.198 37.1458 191.448 34.8333 190.531 33.25C189.656 31.625 188.719 30.7708 187.719 30.6875C186.76 30.5625 185.844 31.2083 184.969 32.625C184.135 34 183.49 36.1667 183.031 39.125C182.948 39.5833 182.844 40.2917 182.719 41.25C182.594 42.2083 182.448 43.2917 182.281 44.5C182.156 45.7083 182.01 47 181.844 48.375C181.719 49.7083 181.573 50.9792 181.406 52.1875C181.281 53.3958 181.177 54.4792 181.094 55.4375C181.01 56.3958 180.948 57.1042 180.906 57.5625C180.656 58.2292 180.177 58.625 179.469 58.75C178.802 58.875 178.177 58.8333 177.594 58.625L175.469 26.125C175.427 25.5833 175.552 25.125 175.844 24.75C176.135 24.3333 176.469 24.0625 176.844 23.9375C177.219 23.7708 177.594 23.7708 177.969 23.9375C178.344 24.1042 178.594 24.4792 178.719 25.0625L180.906 34.75C182.198 31.625 183.385 29.4167 184.469 28.125C185.594 26.7917 186.635 26.1042 187.594 26.0625C188.552 26.0208 189.469 26.4792 190.344 27.4375C191.219 28.3958 192.031 29.5625 192.781 30.9375C193.573 32.2708 194.323 33.7083 195.031 35.25C195.74 36.75 196.448 38.0417 197.156 39.125C198.865 33.25 200.802 29.0208 202.969 26.4375C205.177 23.8125 207.281 22.7292 209.281 23.1875C211.323 23.6458 213.115 25.6042 214.656 29.0625C216.198 32.4792 217.219 37.2917 217.719 43.5C217.802 44.4583 217.865 45.7292 217.906 47.3125C217.948 48.8542 217.969 50.375 217.969 51.875C217.969 53.375 217.948 54.6875 217.906 55.8125C217.865 56.8958 217.802 57.4792 217.719 57.5625L216.656 58.625L214.469 56.5C214.719 54.3333 214.781 52.0833 214.656 49.75C214.573 47.375 214.344 45 213.969 42.625C213.635 40.25 213.219 37.9375 212.719 35.6875C212.219 33.4375 211.719 31.3333 211.219 29.375C210.635 27.7083 209.927 26.75 209.094 26.5C208.26 26.2083 207.406 26.3542 206.531 26.9375C205.698 27.4792 204.927 28.3125 204.219 29.4375C203.51 30.5208 202.969 31.5833 202.594 32.625C202.344 33.25 202.031 34.0833 201.656 35.125C201.323 36.1667 200.99 37.2083 200.656 38.25C200.323 39.2917 200.031 40.2083 199.781 41C199.531 41.7917 199.385 42.25 199.344 42.375C199.177 43.125 198.969 44.4167 198.719 46.25C198.51 48.0833 198.281 50.0417 198.031 52.125C197.823 54.2083 197.635 56.1875 197.469 58.0625C197.302 59.8958 197.198 61.1875 197.156 61.9375C197.156 62.5625 196.99 62.9167 196.656 63C196.323 63.0833 195.948 63.0417 195.531 62.875C195.073 62.7083 194.531 62.3958 193.906 61.9375ZM223.156 61.9375C222.323 60.1875 221.865 58.4167 221.781 56.625C221.74 54.8333 221.844 53 222.094 51.125C222.135 50.5417 222.24 49.6667 222.406 48.5C222.573 47.3333 222.76 46.0417 222.969 44.625C223.177 43.2083 223.406 41.7083 223.656 40.125C223.906 38.5417 224.135 37.0417 224.344 35.625C224.552 34.2083 224.74 32.9583 224.906 31.875C225.115 30.75 225.26 29.9167 225.344 29.375C225.677 27.625 226.031 26.1458 226.406 24.9375C226.823 23.6875 227.365 22.7292 228.031 22.0625C228.74 21.3958 229.635 21.0417 230.719 21C231.844 20.9583 233.281 21.2292 235.031 21.8125C235.24 21.8542 235.469 22.0208 235.719 22.3125C235.969 22.5625 236.115 22.75 236.156 22.875C236.24 23.4167 236.385 24.25 236.594 25.375C236.844 26.5 237.115 27.7917 237.406 29.25C237.698 30.6667 237.99 32.1667 238.281 33.75C238.615 35.2917 238.927 36.7917 239.219 38.25C239.51 39.6667 239.76 40.9375 239.969 42.0625C240.219 43.1875 240.406 44.0208 240.531 44.5625C241.156 47.5208 241.927 49.5833 242.844 50.75C243.76 51.875 244.74 52.4583 245.781 52.5C246.823 52.5417 247.885 52.2083 248.969 51.5C250.094 50.75 251.198 49.9792 252.281 49.1875C253.365 48.3542 254.385 47.6458 255.344 47.0625C256.302 46.4792 257.135 46.375 257.844 46.75C257.844 47.5417 257.656 48.3125 257.281 49.0625C256.906 49.8125 256.448 50.5208 255.906 51.1875C255.406 51.8125 254.844 52.3958 254.219 52.9375C253.594 53.4792 253.01 53.9375 252.469 54.3125C250.135 55.8542 248.177 56.6667 246.594 56.75C245.052 56.8333 243.74 56.4792 242.656 55.6875C241.573 54.8958 240.698 53.8125 240.031 52.4375C239.365 51.0625 238.76 49.6667 238.219 48.25C237.719 46.8333 237.219 45.5833 236.719 44.5C236.26 43.375 235.698 42.6667 235.031 42.375C234.906 42.9167 234.635 43.8542 234.219 45.1875C233.844 46.5208 233.427 47.9375 232.969 49.4375C232.51 50.9375 232.073 52.3542 231.656 53.6875C231.24 55.0208 230.948 55.9583 230.781 56.5C230.698 56.7083 230.51 57.1042 230.219 57.6875C229.969 58.2708 229.635 58.9167 229.219 59.625C228.802 60.2917 228.323 60.9583 227.781 61.625C227.281 62.25 226.76 62.7292 226.219 63.0625C225.677 63.4375 225.135 63.5625 224.594 63.4375C224.052 63.3125 223.573 62.8125 223.156 61.9375ZM226.406 43.5C226.323 44 226.26 44.9167 226.219 46.25C226.219 47.5833 226.219 49 226.219 50.5C226.219 52 226.219 53.4167 226.219 54.75C226.26 56.0833 226.323 57.0208 226.406 57.5625C227.865 55.3542 229.177 52.7917 230.344 49.875C231.51 46.9167 232.385 43.875 232.969 40.75C233.594 37.5833 233.844 34.4583 233.719 31.375C233.594 28.25 232.969 25.4167 231.844 22.875C231.135 24.1667 230.469 25.7917 229.844 27.75C229.219 29.7083 228.677 31.7083 228.219 33.75C227.76 35.75 227.365 37.6458 227.031 39.4375C226.74 41.1875 226.531 42.5417 226.406 43.5ZM257.594 60.8125C256.052 59.6458 254.927 58.25 254.219 56.625C253.552 54.9583 253.177 53.1667 253.094 51.25C253.052 49.2917 253.26 47.2917 253.719 45.25C254.219 43.2083 254.865 41.2292 255.656 39.3125C256.448 37.3958 257.323 35.625 258.281 34C259.281 32.3333 260.281 30.9375 261.281 29.8125C262.281 28.6458 263.219 27.8333 264.094 27.375C264.969 26.875 265.677 26.8333 266.219 27.25C266.302 27.7083 266.448 28.5625 266.656 29.8125C266.906 31.0208 267.135 32.3333 267.344 33.75C267.594 35.125 267.802 36.4375 267.969 37.6875C268.177 38.8958 268.323 39.7292 268.406 40.1875C268.49 40.7292 268.51 41.3125 268.469 41.9375C268.427 42.5208 268.302 43.0625 268.094 43.5625C267.885 44.0208 267.531 44.375 267.031 44.625C266.573 44.8333 265.948 44.8125 265.156 44.5625C265.115 44.2708 264.99 43.7708 264.781 43.0625C264.615 42.3542 264.406 41.6042 264.156 40.8125C263.948 39.9792 263.719 39.2083 263.469 38.5C263.26 37.75 263.115 37.2292 263.031 36.9375L261.969 35.875C260.677 36.75 259.594 38 258.719 39.625C257.885 41.25 257.281 43.0208 256.906 44.9375C256.531 46.8125 256.427 48.7083 256.594 50.625C256.802 52.5 257.281 54.1667 258.031 55.625C258.823 57.0417 259.906 58.125 261.281 58.875C262.698 59.5833 264.448 59.6875 266.531 59.1875C268.656 58.6875 271.135 57.4792 273.969 55.5625C276.802 53.6042 280.031 50.6667 283.656 46.75V48.9375C283.656 49.0625 283.406 49.4375 282.906 50.0625C282.406 50.6875 281.802 51.4167 281.094 52.25C280.385 53.0417 279.656 53.8333 278.906 54.625C278.198 55.4167 277.594 56.0417 277.094 56.5C275.719 57.7917 274.24 58.9792 272.656 60.0625C271.115 61.1458 269.51 61.9583 267.844 62.5C266.177 63.0417 264.469 63.2083 262.719 63C261.01 62.8333 259.302 62.1042 257.594 60.8125ZM291.156 60.8125C291.531 56.3958 291.615 52.1667 291.406 48.125C291.24 44.0833 290.906 40.0625 290.406 36.0625C289.906 32.0625 289.323 28 288.656 23.875C287.99 19.75 287.385 15.4167 286.844 10.875C286.844 10.75 286.823 10.5417 286.781 10.25C286.781 9.95833 286.781 9.64583 286.781 9.3125C286.781 8.9375 286.781 8.60417 286.781 8.3125C286.823 8.02083 286.844 7.8125 286.844 7.6875H289.031C289.156 8.4375 289.344 9.60417 289.594 11.1875C289.885 12.7708 290.198 14.5625 290.531 16.5625C290.906 18.5625 291.281 20.6667 291.656 22.875C292.073 25.0833 292.448 27.1875 292.781 29.1875C293.156 31.1875 293.49 32.9792 293.781 34.5625C294.073 36.1458 294.302 37.3125 294.469 38.0625C294.469 38.1875 294.51 38.4167 294.594 38.75C294.719 39.0417 294.823 39.3542 294.906 39.6875C295.031 40.0208 295.135 40.3542 295.219 40.6875C295.344 40.9792 295.448 41.1875 295.531 41.3125C295.656 40.9792 295.906 40.4167 296.281 39.625C296.698 38.7917 297.135 37.9167 297.594 37C298.052 36.0417 298.49 35.1667 298.906 34.375C299.323 33.5417 299.635 32.9583 299.844 32.625C300.51 31.4167 301.365 30.3125 302.406 29.3125C303.448 28.3125 304.469 27.6875 305.469 27.4375C306.469 27.1875 307.344 27.4375 308.094 28.1875C308.885 28.8958 309.385 30.375 309.594 32.625C309.635 33.1667 309.677 34 309.719 35.125C309.802 36.25 309.885 37.5417 309.969 39C310.052 40.4167 310.135 41.9167 310.219 43.5C310.302 45.0833 310.365 46.5833 310.406 48C310.49 49.4167 310.552 50.6875 310.594 51.8125C310.677 52.9375 310.719 53.7708 310.719 54.3125C311.177 54.8958 311.51 55.5833 311.719 56.375C311.969 57.125 311.99 57.875 311.781 58.625C310.948 58.9167 310.24 58.8958 309.656 58.5625C309.073 58.2292 308.573 57.7708 308.156 57.1875C307.74 56.5625 307.385 55.875 307.094 55.125C306.802 54.375 306.552 53.7292 306.344 53.1875C306.427 51.6042 306.49 49.8958 306.531 48.0625C306.573 46.2292 306.552 44.375 306.469 42.5C306.427 40.5833 306.302 38.6875 306.094 36.8125C305.927 34.9375 305.656 33.1667 305.281 31.5C304.531 31.125 303.823 31.2708 303.156 31.9375C302.531 32.6042 301.927 33.625 301.344 35C300.802 36.3333 300.281 37.9167 299.781 39.75C299.281 41.5833 298.802 43.5208 298.344 45.5625C297.885 47.5625 297.427 49.5625 296.969 51.5625C296.552 53.5625 296.135 55.375 295.719 57C295.344 58.625 294.948 59.9792 294.531 61.0625C294.156 62.1458 293.76 62.7917 293.344 63L291.156 60.8125ZM318.344 61.9375C318.385 61.3958 318.406 60.4583 318.406 59.125V50.625C318.406 49.2917 318.385 48.3542 318.344 47.8125C318.302 47.5625 318.219 47.0208 318.094 46.1875C318.01 45.3542 317.885 44.375 317.719 43.25C317.594 42.125 317.448 40.9375 317.281 39.6875C317.115 38.4375 316.948 37.25 316.781 36.125C316.615 35 316.469 34.0208 316.344 33.1875C316.26 32.3542 316.198 31.7917 316.156 31.5C316.073 30.9167 316.031 30.3125 316.031 29.6875C316.073 29.0625 316.198 28.5208 316.406 28.0625C316.615 27.6042 316.948 27.2917 317.406 27.125C317.865 26.9167 318.531 26.9583 319.406 27.25C319.448 28.125 319.51 29.1667 319.594 30.375C319.719 31.5417 319.865 32.7708 320.031 34.0625C320.198 35.3542 320.406 36.625 320.656 37.875C320.906 39.125 321.219 40.2708 321.594 41.3125C322.135 39.7708 322.656 38.4167 323.156 37.25C323.698 36.0417 324.302 34.9375 324.969 33.9375C325.635 32.9375 326.385 32 327.219 31.125C328.052 30.2083 329.052 29.2708 330.219 28.3125C331.677 27.1042 332.885 26.625 333.844 26.875C334.844 27.0833 335.656 27.7917 336.281 29C336.948 30.1667 337.49 31.6875 337.906 33.5625C338.323 35.4375 338.698 37.4375 339.031 39.5625C339.365 41.6458 339.698 43.7083 340.031 45.75C340.406 47.75 340.865 49.5 341.406 51C341.948 52.4583 342.615 53.5417 343.406 54.25C344.24 54.9167 345.281 54.9375 346.531 54.3125C346.906 55.4375 346.948 56.2708 346.656 56.8125C346.406 57.3125 345.948 57.6042 345.281 57.6875C344.656 57.7292 343.906 57.5625 343.031 57.1875C342.156 56.7708 341.281 56.2292 340.406 55.5625C339.573 54.8542 338.823 54.0208 338.156 53.0625C337.49 52.1042 337.031 51.0833 336.781 50C336.615 49.25 336.469 48.0208 336.344 46.3125C336.219 44.6042 336.031 42.7708 335.781 40.8125C335.531 38.8542 335.135 36.9375 334.594 35.0625C334.094 33.1458 333.365 31.625 332.406 30.5L328.031 34.75C327.906 34.9167 327.594 35.6667 327.094 37C326.635 38.3333 326.115 39.875 325.531 41.625C324.948 43.3333 324.385 45.0833 323.844 46.875C323.302 48.625 322.906 50.0417 322.656 51.125C322.573 51.5 322.469 52.2083 322.344 53.25C322.219 54.25 322.094 55.3333 321.969 56.5C321.844 57.6667 321.74 58.7708 321.656 59.8125C321.615 60.8125 321.594 61.5208 321.594 61.9375C321.219 62.6875 320.677 63.0625 319.969 63.0625C319.26 63.0625 318.719 62.6875 318.344 61.9375ZM351.969 59.75C350.927 58.2083 350.302 56.5 350.094 54.625C349.885 52.7083 349.885 50.7083 350.094 48.625C350.302 46.5417 350.635 44.4375 351.094 42.3125C351.552 40.1875 351.948 38.1458 352.281 36.1875C352.615 34.1875 352.802 32.3333 352.844 30.625C352.885 28.875 352.594 27.375 351.969 26.125C351.635 25.4583 351.177 25.1458 350.594 25.1875C350.052 25.1875 349.448 25.2708 348.781 25.4375C348.156 25.5625 347.51 25.6042 346.844 25.5625C346.219 25.5208 345.656 25.125 345.156 24.375C345.198 24.2083 345.365 24 345.656 23.75C345.906 23.4583 346.094 23.2917 346.219 23.25C349.969 22.7083 353.094 23.1042 355.594 24.4375C358.135 25.7292 360.156 27.5833 361.656 30C363.156 32.375 364.177 35.1042 364.719 38.1875C365.302 41.2708 365.51 44.3333 365.344 47.375C365.177 50.4167 364.698 53.25 363.906 55.875C363.115 58.4583 362.115 60.4583 360.906 61.875C359.698 63.2917 358.323 63.9167 356.781 63.75C355.24 63.5833 353.635 62.25 351.969 59.75ZM355.219 57.5625C355.26 57.6875 355.385 57.8542 355.594 58.0625C355.802 58.2708 356.01 58.5 356.219 58.75C356.469 59 356.698 59.2292 356.906 59.4375C357.115 59.6042 357.26 59.7083 357.344 59.75C358.885 58.875 360.031 57.6875 360.781 56.1875C361.531 54.6875 361.969 53.0208 362.094 51.1875C362.26 49.3542 362.177 47.4375 361.844 45.4375C361.552 43.3958 361.115 41.4375 360.531 39.5625C359.948 37.6875 359.26 35.9583 358.469 34.375C357.719 32.7917 356.99 31.5 356.281 30.5C356.24 31.0417 356.156 31.875 356.031 33C355.906 34.125 355.781 35.3958 355.656 36.8125C355.531 38.2292 355.385 39.7292 355.219 41.3125C355.052 42.8958 354.885 44.4167 354.719 45.875C354.594 47.2917 354.469 48.5625 354.344 49.6875C354.219 50.8125 354.135 51.6458 354.094 52.1875C354.052 52.6042 354.052 53.0833 354.094 53.625C354.177 54.125 354.281 54.625 354.406 55.125C354.531 55.625 354.656 56.1042 354.781 56.5625C354.948 56.9792 355.094 57.3125 355.219 57.5625ZM414.844 61.9375C414.76 61.6875 414.719 61.2917 414.719 60.75C414.719 60.2083 414.76 59.875 414.844 59.75C414.885 59.7083 414.99 59.6458 415.156 59.5625C415.365 59.4375 415.573 59.3125 415.781 59.1875C416.031 59.0625 416.26 58.9583 416.469 58.875C416.719 58.75 416.906 58.6667 417.031 58.625C418.865 58.125 420.677 57.5833 422.469 57C424.302 56.4167 426.094 55.75 427.844 55C429.594 54.25 431.281 53.3958 432.906 52.4375C434.531 51.4375 436.094 50.2708 437.594 48.9375C441.177 45.6875 443.74 42.8958 445.281 40.5625C446.865 38.1875 447.698 36.1875 447.781 34.5625C447.865 32.9375 447.344 31.6458 446.219 30.6875C445.135 29.6875 443.74 28.9583 442.031 28.5C440.365 28 438.51 27.7292 436.469 27.6875C434.469 27.6458 432.594 27.75 430.844 28C429.135 28.25 427.677 28.6042 426.469 29.0625C425.302 29.5208 424.698 30 424.656 30.5L422.469 52.1875C422.427 52.5625 422.219 52.8542 421.844 53.0625C421.51 53.2292 421.135 53.3125 420.719 53.3125C420.344 53.3125 419.99 53.2292 419.656 53.0625C419.365 52.8542 419.219 52.5625 419.219 52.1875V34.75H414.844C414.802 34.6667 414.781 34.5 414.781 34.25C414.781 33.9583 414.802 33.7708 414.844 33.6875C415.01 33.4792 415.281 33.125 415.656 32.625C416.073 32.0833 416.51 31.5208 416.969 30.9375C417.427 30.3542 417.865 29.8125 418.281 29.3125C418.698 28.8125 419.01 28.4792 419.219 28.3125C419.26 27.7708 419.323 26.8333 419.406 25.5C419.531 24.1667 419.635 22.75 419.719 21.25C419.844 19.75 419.948 18.3333 420.031 17C420.156 15.625 420.24 14.6875 420.281 14.1875C420.365 13.0625 420.24 12.2708 419.906 11.8125C419.615 11.3125 419.198 11.0625 418.656 11.0625C418.115 11.0208 417.51 11.1667 416.844 11.5C416.177 11.7917 415.51 12.1667 414.844 12.625C414.177 13.0833 413.552 13.5625 412.969 14.0625C412.385 14.5625 411.927 14.9583 411.594 15.25C411.26 15.5833 410.677 16.1667 409.844 17C409.01 17.7917 408.135 18.6667 407.219 19.625C406.302 20.5417 405.427 21.4167 404.594 22.25C403.76 23.0417 403.198 23.6042 402.906 23.9375H399.656C399.281 22.7708 399.51 21.5417 400.344 20.25C401.219 18.9167 402.51 17.5625 404.219 16.1875C405.927 14.8125 407.948 13.4375 410.281 12.0625C412.656 10.6875 415.156 9.39583 417.781 8.1875C420.406 6.9375 423.031 5.79167 425.656 4.75C428.323 3.70833 430.802 2.83333 433.094 2.125C435.427 1.375 437.469 0.8125 439.219 0.4375C440.969 0.0625 442.24 -0.0625 443.031 0.0625C443.781 0.229167 444.26 0.645833 444.469 1.3125C444.677 1.97917 444.719 2.72917 444.594 3.5625C444.469 4.35417 444.24 5.14583 443.906 5.9375C443.615 6.72917 443.323 7.3125 443.031 7.6875C441.74 9.52083 440.552 11.1875 439.469 12.6875C438.385 14.1458 437.26 15.5417 436.094 16.875C434.969 18.1667 433.74 19.4792 432.406 20.8125C431.115 22.1042 429.615 23.5208 427.906 25.0625C429.323 25.3125 430.677 25.3542 431.969 25.1875C433.302 25.0208 434.594 24.8542 435.844 24.6875C437.135 24.4792 438.448 24.375 439.781 24.375C441.156 24.3333 442.615 24.5625 444.156 25.0625C445.073 25.3542 445.885 25.6667 446.594 26C447.302 26.3333 447.906 26.7292 448.406 27.1875C448.948 27.6458 449.385 28.2292 449.719 28.9375C450.094 29.6042 450.406 30.4583 450.656 31.5C451.198 34 450.99 36.4375 450.031 38.8125C449.073 41.1875 447.615 43.4375 445.656 45.5625C443.74 47.6875 441.49 49.6875 438.906 51.5625C436.323 53.3958 433.698 55.0625 431.031 56.5625C428.365 58.0625 425.781 59.3542 423.281 60.4375C420.823 61.5208 418.74 62.375 417.031 63C416.573 63.2083 416.135 63.1875 415.719 62.9375C415.302 62.6458 415.01 62.3125 414.844 61.9375ZM424.656 23.9375C424.948 23.6875 425.365 23.2917 425.906 22.75C426.49 22.1667 427.135 21.5208 427.844 20.8125C428.594 20.1042 429.365 19.375 430.156 18.625C430.948 17.8333 431.677 17.0833 432.344 16.375C433.052 15.625 433.677 14.9583 434.219 14.375C434.802 13.7917 435.219 13.3542 435.469 13.0625C435.885 12.6458 436.385 12.0417 436.969 11.25C437.594 10.4167 438.198 9.60417 438.781 8.8125C439.365 7.97917 439.865 7.25 440.281 6.625C440.698 6 440.906 5.625 440.906 5.5V2.25C439.656 2.04167 438.177 2.14583 436.469 2.5625C434.802 2.97917 433.135 3.52083 431.469 4.1875C429.802 4.8125 428.24 5.47917 426.781 6.1875C425.365 6.85417 424.281 7.35417 423.531 7.6875L424.656 9.8125V23.9375ZM455.531 61.9375C454.698 60.1875 454.24 58.4167 454.156 56.625C454.115 54.8333 454.219 53 454.469 51.125C454.51 50.5417 454.615 49.6667 454.781 48.5C454.948 47.3333 455.135 46.0417 455.344 44.625C455.552 43.2083 455.781 41.7083 456.031 40.125C456.281 38.5417 456.51 37.0417 456.719 35.625C456.927 34.2083 457.115 32.9583 457.281 31.875C457.49 30.75 457.635 29.9167 457.719 29.375C458.052 27.625 458.406 26.1458 458.781 24.9375C459.198 23.6875 459.74 22.7292 460.406 22.0625C461.115 21.3958 462.01 21.0417 463.094 21C464.219 20.9583 465.656 21.2292 467.406 21.8125C467.615 21.8542 467.844 22.0208 468.094 22.3125C468.344 22.5625 468.49 22.75 468.531 22.875C468.615 23.4167 468.76 24.25 468.969 25.375C469.219 26.5 469.49 27.7917 469.781 29.25C470.073 30.6667 470.365 32.1667 470.656 33.75C470.99 35.2917 471.302 36.7917 471.594 38.25C471.885 39.6667 472.135 40.9375 472.344 42.0625C472.594 43.1875 472.781 44.0208 472.906 44.5625C473.531 47.5208 474.302 49.5833 475.219 50.75C476.135 51.875 477.115 52.4583 478.156 52.5C479.198 52.5417 480.26 52.2083 481.344 51.5C482.469 50.75 483.573 49.9792 484.656 49.1875C485.74 48.3542 486.76 47.6458 487.719 47.0625C488.677 46.4792 489.51 46.375 490.219 46.75C490.219 47.5417 490.031 48.3125 489.656 49.0625C489.281 49.8125 488.823 50.5208 488.281 51.1875C487.781 51.8125 487.219 52.3958 486.594 52.9375C485.969 53.4792 485.385 53.9375 484.844 54.3125C482.51 55.8542 480.552 56.6667 478.969 56.75C477.427 56.8333 476.115 56.4792 475.031 55.6875C473.948 54.8958 473.073 53.8125 472.406 52.4375C471.74 51.0625 471.135 49.6667 470.594 48.25C470.094 46.8333 469.594 45.5833 469.094 44.5C468.635 43.375 468.073 42.6667 467.406 42.375C467.281 42.9167 467.01 43.8542 466.594 45.1875C466.219 46.5208 465.802 47.9375 465.344 49.4375C464.885 50.9375 464.448 52.3542 464.031 53.6875C463.615 55.0208 463.323 55.9583 463.156 56.5C463.073 56.7083 462.885 57.1042 462.594 57.6875C462.344 58.2708 462.01 58.9167 461.594 59.625C461.177 60.2917 460.698 60.9583 460.156 61.625C459.656 62.25 459.135 62.7292 458.594 63.0625C458.052 63.4375 457.51 63.5625 456.969 63.4375C456.427 63.3125 455.948 62.8125 455.531 61.9375ZM458.781 43.5C458.698 44 458.635 44.9167 458.594 46.25C458.594 47.5833 458.594 49 458.594 50.5C458.594 52 458.594 53.4167 458.594 54.75C458.635 56.0833 458.698 57.0208 458.781 57.5625C460.24 55.3542 461.552 52.7917 462.719 49.875C463.885 46.9167 464.76 43.875 465.344 40.75C465.969 37.5833 466.219 34.4583 466.094 31.375C465.969 28.25 465.344 25.4167 464.219 22.875C463.51 24.1667 462.844 25.7917 462.219 27.75C461.594 29.7083 461.052 31.7083 460.594 33.75C460.135 35.75 459.74 37.6458 459.406 39.4375C459.115 41.1875 458.906 42.5417 458.781 43.5ZM490.156 58.625C490.198 57.9583 490.344 57 490.594 55.75C490.885 54.4583 491.135 53.1042 491.344 51.6875C491.594 50.2292 491.74 48.7917 491.781 47.375C491.865 45.9583 491.74 44.7708 491.406 43.8125C491.073 42.8125 490.469 42.1458 489.594 41.8125C488.76 41.4792 487.531 41.6667 485.906 42.375C484.99 42.125 484.469 41.7708 484.344 41.3125C484.219 40.8542 484.344 40.3333 484.719 39.75C485.094 39.1667 485.615 38.5417 486.281 37.875C486.99 37.1667 487.698 36.4583 488.406 35.75C489.115 35 489.74 34.2708 490.281 33.5625C490.865 32.8542 491.198 32.1667 491.281 31.5C491.24 31.1667 491.156 30.4375 491.031 29.3125C490.948 28.1875 490.823 26.8958 490.656 25.4375C490.49 23.9375 490.323 22.3542 490.156 20.6875C490.031 19.0208 489.885 17.4375 489.719 15.9375C489.552 14.4375 489.406 13.1458 489.281 12.0625C489.198 10.9375 489.135 10.1875 489.094 9.8125C489.052 9.27083 489.052 8.77083 489.094 8.3125C489.177 7.8125 489.344 7.39583 489.594 7.0625C489.844 6.72917 490.177 6.52083 490.594 6.4375C491.052 6.3125 491.635 6.375 492.344 6.625C492.552 8.20833 492.76 10 492.969 12C493.177 14 493.406 16.0625 493.656 18.1875C493.906 20.3125 494.177 22.4375 494.469 24.5625C494.802 26.6875 495.177 28.6667 495.594 30.5C496.01 30.1667 496.51 29.6042 497.094 28.8125C497.677 27.9792 498.302 27.0833 498.969 26.125C499.635 25.125 500.323 24.1458 501.031 23.1875C501.781 22.1875 502.49 21.3958 503.156 20.8125C503.823 20.1875 504.448 19.8333 505.031 19.75C505.615 19.625 506.094 19.9375 506.469 20.6875C506.51 20.7708 506.531 20.9583 506.531 21.25C506.531 21.5 506.51 21.6875 506.469 21.8125C505.927 23.4792 505.052 25.0208 503.844 26.4375C502.677 27.8542 501.469 29.2292 500.219 30.5625C499.01 31.8958 497.948 33.2708 497.031 34.6875C496.115 36.0625 495.635 37.5417 495.594 39.125C495.969 39.4583 496.51 40 497.219 40.75L502.656 46.1875C503.698 47.1875 504.677 48.1667 505.594 49.125C506.51 50.0417 507.323 50.875 508.031 51.625L509.656 53.1875C509.906 53.4375 510.302 53.8542 510.844 54.4375C511.385 54.9792 511.865 55.5833 512.281 56.25C512.698 56.9167 512.927 57.5625 512.969 58.1875C513.01 58.8125 512.635 59.3333 511.844 59.75C511.76 59.7917 511.573 59.8125 511.281 59.8125C511.031 59.8125 510.865 59.7917 510.781 59.75C508.656 57.0833 506.302 54.3958 503.719 51.6875C501.177 48.9375 498.469 46.5625 495.594 44.5625C495.552 44.9375 495.49 45.5208 495.406 46.3125C495.323 47.1042 495.198 48 495.031 49C494.906 50 494.76 51.0625 494.594 52.1875C494.469 53.2708 494.323 54.3125 494.156 55.3125C493.99 56.3125 493.844 57.2083 493.719 58C493.594 58.7917 493.49 59.375 493.406 59.75C493.365 59.9583 493.24 60.2917 493.031 60.75C492.865 61.1667 492.635 61.5833 492.344 62C492.052 62.4167 491.719 62.75 491.344 63C490.969 63.2083 490.573 63.2083 490.156 63C490.156 62.8333 490.135 62.5625 490.094 62.1875C490.094 61.7708 490.094 61.3333 490.094 60.875C490.094 60.375 490.094 59.9167 490.094 59.5C490.135 59.0833 490.156 58.7917 490.156 58.625ZM527.594 61.9375C525.844 60.5625 524.448 58.9583 523.406 57.125C522.406 55.25 521.635 53.25 521.094 51.125C520.844 51.3333 520.469 51.5625 519.969 51.8125C519.469 52.0625 518.948 52.2708 518.406 52.4375C517.906 52.6042 517.406 52.7292 516.906 52.8125C516.406 52.8542 516.031 52.7917 515.781 52.625C515.573 52.4583 515.51 52.1875 515.594 51.8125C515.719 51.3958 516.115 50.7917 516.781 50C516.865 49.875 517.115 49.6042 517.531 49.1875C517.99 48.7708 518.469 48.3333 518.969 47.875C519.469 47.375 519.927 46.9167 520.344 46.5C520.76 46.0417 521.01 45.75 521.094 45.625C521.552 44.5833 521.823 43.4375 521.906 42.1875C522.031 40.9375 522.094 39.6458 522.094 38.3125C522.135 36.9375 522.219 35.5833 522.344 34.25C522.469 32.9167 522.781 31.6667 523.281 30.5C523.573 29.8333 524.115 29.0208 524.906 28.0625C525.74 27.0625 526.656 26.1042 527.656 25.1875C528.698 24.2708 529.74 23.4583 530.781 22.75C531.865 22 532.781 21.5417 533.531 21.375C534.323 21.2083 534.885 21.3958 535.219 21.9375C535.594 22.4792 535.594 23.5208 535.219 25.0625C534.76 26.8958 534.052 28.6875 533.094 30.4375C532.177 32.1458 531.219 33.8542 530.219 35.5625C529.219 37.2292 528.26 38.8958 527.344 40.5625C526.469 42.2292 525.844 43.9167 525.469 45.625C525.26 46.5417 525.156 47.6667 525.156 49C525.156 50.2917 525.302 51.5833 525.594 52.875C525.885 54.1667 526.365 55.3542 527.031 56.4375C527.698 57.4792 528.615 58.2083 529.781 58.625C531.115 59.125 532.448 59.25 533.781 59C535.115 58.75 536.406 58.2708 537.656 57.5625C538.948 56.8542 540.177 55.9792 541.344 54.9375C542.51 53.8542 543.594 52.75 544.594 51.625C545.594 50.5 546.49 49.4167 547.281 48.375C548.073 47.2917 548.74 46.375 549.281 45.625L550.344 46.75C550.635 47 550.448 47.7083 549.781 48.875C549.156 50.0417 548.219 51.375 546.969 52.875C545.76 54.3333 544.323 55.8333 542.656 57.375C540.99 58.9167 539.26 60.2083 537.469 61.25C535.719 62.2917 533.969 62.9375 532.219 63.1875C530.51 63.4375 528.969 63.0208 527.594 61.9375ZM525.469 34.75C525.427 34.9583 525.385 35.3333 525.344 35.875C525.344 36.375 525.344 36.9167 525.344 37.5C525.344 38.0833 525.344 38.625 525.344 39.125C525.385 39.625 525.427 39.9792 525.469 40.1875C526.802 37.8958 528.052 35.4583 529.219 32.875C530.385 30.2917 531.302 27.6875 531.969 25.0625C531.01 25.3958 530.135 25.9167 529.344 26.625C528.594 27.2917 527.948 28.0833 527.406 29C526.865 29.875 526.427 30.8125 526.094 31.8125C525.802 32.8125 525.594 33.7917 525.469 34.75ZM553.531 62.3125C552.865 63.6875 552.302 64.375 551.844 64.375C551.385 64.4167 550.99 63.9583 550.656 63C550.365 62.0833 550.115 60.7708 549.906 59.0625C549.74 57.3542 549.615 55.4583 549.531 53.375C549.49 51.2917 549.49 49.1042 549.531 46.8125C549.573 44.5208 549.635 42.3125 549.719 40.1875C549.844 38.0625 549.99 36.125 550.156 34.375C550.323 32.5833 550.49 31.1875 550.656 30.1875C550.865 29.1458 551.073 28.5833 551.281 28.5C551.49 28.4167 551.698 28.9792 551.906 30.1875C553.24 29.1875 554.677 28.25 556.219 27.375C557.76 26.4583 559.344 25.7083 560.969 25.125C562.635 24.5 564.302 24.1042 565.969 23.9375C567.677 23.7708 569.323 23.9167 570.906 24.375C571.073 24.9167 571.094 25.5417 570.969 26.25C570.844 26.9583 570.448 27.4167 569.781 27.625C569.115 27.5 568.24 27.4375 567.156 27.4375C566.073 27.4375 564.927 27.5208 563.719 27.6875C562.51 27.8542 561.302 28.125 560.094 28.5C558.885 28.875 557.781 29.375 556.781 30C555.823 30.5833 555.031 31.3125 554.406 32.1875C553.823 33.0208 553.531 34.0208 553.531 35.1875V62.3125ZM600.344 81.4375C599.302 80.7292 598.573 79.7917 598.156 78.625C597.781 77.4583 597.615 76.1667 597.656 74.75C597.698 73.3333 597.906 71.8333 598.281 70.25C598.656 68.7083 599.094 67.2083 599.594 65.75C600.094 64.2917 600.615 62.9375 601.156 61.6875C601.698 60.4375 602.156 59.4167 602.531 58.625C602.698 58.25 602.969 57.6667 603.344 56.875C603.719 56.0833 604.156 55.1875 604.656 54.1875L607.781 47.9375C608.281 46.9375 608.74 46.0417 609.156 45.25C609.573 44.4583 609.885 43.875 610.094 43.5C610.302 41.5417 610.156 40 609.656 38.875C609.198 37.75 608.531 36.9792 607.656 36.5625C606.781 36.1458 605.76 36.0417 604.594 36.25C603.469 36.4583 602.302 36.8958 601.094 37.5625C599.927 38.2292 598.781 39.0833 597.656 40.125C596.573 41.125 595.656 42.25 594.906 43.5C594.656 43.7083 594.219 44.2083 593.594 45C592.969 45.75 592.219 46.6875 591.344 47.8125C590.469 48.8958 589.49 50.0833 588.406 51.375C587.365 52.6667 586.281 53.9375 585.156 55.1875C584.073 56.3958 583.01 57.5208 581.969 58.5625C580.927 59.6042 579.948 60.4167 579.031 61C578.156 61.5833 577.385 61.8958 576.719 61.9375C576.094 61.9792 575.656 61.6042 575.406 60.8125C575.365 60.7708 575.323 60.6458 575.281 60.4375C575.281 60.2292 575.281 60.0208 575.281 59.8125C575.281 59.5625 575.281 59.3333 575.281 59.125C575.323 58.9167 575.365 58.75 575.406 58.625C575.49 58.2083 575.656 57.3333 575.906 56C576.198 54.6667 576.51 53.1042 576.844 51.3125C577.219 49.5208 577.615 47.6042 578.031 45.5625C578.448 43.5208 578.823 41.6042 579.156 39.8125C579.531 38.0208 579.865 36.4792 580.156 35.1875C580.448 33.8542 580.656 32.9792 580.781 32.5625C580.865 32.1875 581.135 31.6875 581.594 31.0625C582.052 30.4375 582.573 29.9167 583.156 29.5C583.74 29.0833 584.302 28.8958 584.844 28.9375C585.427 28.9792 585.885 29.4583 586.219 30.375C585.802 31 585.323 31.9792 584.781 33.3125C584.24 34.6458 583.698 36.1458 583.156 37.8125C582.656 39.4792 582.156 41.25 581.656 43.125C581.156 44.9583 580.719 46.7292 580.344 48.4375C580.01 50.1458 579.781 51.7292 579.656 53.1875C579.531 54.6042 579.552 55.7083 579.719 56.5C581.469 54.125 583.427 51.6042 585.594 48.9375C587.76 46.2708 589.969 43.75 592.219 41.375C594.469 39 596.698 36.9375 598.906 35.1875C601.156 33.4375 603.219 32.3125 605.094 31.8125C607.01 31.3125 608.677 31.6042 610.094 32.6875C611.552 33.7292 612.635 35.875 613.344 39.125L620.969 32.625H624.219C624.594 33.7917 624.573 34.5833 624.156 35C623.781 35.4167 623.219 35.75 622.469 36C621.719 36.2083 620.885 36.4583 619.969 36.75C619.094 37 618.344 37.5417 617.719 38.375C617.135 39.2083 616.781 40.4375 616.656 42.0625C616.531 43.6875 616.865 45.9792 617.656 48.9375C618.24 51.0208 618.635 53.1667 618.844 55.375C619.094 57.5833 619.073 59.7708 618.781 61.9375C618.656 62.8958 618.323 64.1875 617.781 65.8125C617.281 67.4792 616.615 69.2083 615.781 71C614.948 72.7917 613.969 74.5417 612.844 76.25C611.719 77.9583 610.49 79.375 609.156 80.5C607.865 81.625 606.469 82.3125 604.969 82.5625C603.469 82.8542 601.927 82.4792 600.344 81.4375ZM601.406 76C601.74 77.5833 602.281 78.5833 603.031 79C603.823 79.4167 604.719 79.375 605.719 78.875C606.719 78.375 607.76 77.4792 608.844 76.1875C609.969 74.8958 610.99 73.3542 611.906 71.5625C612.865 69.7708 613.677 67.7708 614.344 65.5625C615.01 63.3958 615.406 61.1667 615.531 58.875C615.698 56.5833 615.531 54.3125 615.031 52.0625C614.531 49.7708 613.594 47.625 612.219 45.625C611.26 46.3333 610.302 47.4167 609.344 48.875C608.385 50.3333 607.469 52 606.594 53.875C605.76 55.75 604.969 57.75 604.219 59.875C603.469 61.9583 602.844 64 602.344 66C601.885 68.0417 601.552 69.9375 601.344 71.6875C601.177 73.4375 601.198 74.875 601.406 76Z" fill="#8D6E63"/>
</svg>
